<svg width="12" height="12" viewBox="0 0 12 12" fill="none" xmlns="http://www.w3.org/2000/svg">
<path d="M10.6353 4.63529H7.36471V1.36471C7.36471 1.00276 7.22092 0.655645 6.96499 0.399713C6.70906 0.143781 6.36194 0 6 0C5.63806 0 5.29094 0.143781 5.03501 0.399713C4.77908 0.655645 4.63529 1.00276 4.63529 1.36471V4.63529H1.36471C1.00276 4.63529 0.655645 4.77908 0.399713 5.03501C0.143781 5.29094 0 5.63806 0 6C0 6.36194 0.143781 6.70906 0.399713 6.96499C0.655645 7.22092 1.00276 7.36471 1.36471 7.36471H4.63529V10.6353C4.63529 10.9972 4.77908 11.3444 5.03501 11.6003C5.29094 11.8562 5.63806 12 6 12C6.36194 12 6.70906 11.8562 6.96499 11.6003C7.22092 11.3444 7.36471 10.9972 7.36471 10.6353V7.36471H10.6353C10.9972 7.36471 11.3444 7.22092 11.6003 6.96499C11.8562 6.70906 12 6.36194 12 6C12 5.63806 11.8562 5.29094 11.6003 5.03501C11.3444 4.77908 10.9972 4.63529 10.6353 4.63529Z" fill="#F9F9F9"/>
</svg>
